<?xml version="1.0" encoding="UTF-8"?>
<svg width="73px" height="80px" viewBox="0 0 73 80" version="1.1" xmlns="http://www.w3.org/2000/svg" xmlns:xlink="http://www.w3.org/1999/xlink">
    <!-- Generator: Sketch 41.2 (35397) - http://www.bohemiancoding.com/sketch -->
    <title>Untitled</title>
    <desc>Created with Sketch.</desc>
    <defs>
        <polygon id="path-1" points="0.163262514 79 29.4620274 79 29.4620274 0.1825 0.163262514 0.1825 0.163262514 79"></polygon>
        <polygon id="path-3" points="9.125 9.1787 9.125 0.5537 0.5001 0.5537 0.5001 9.1787 9.125 9.1787"></polygon>
    </defs>
    <g id="Page-1" stroke="none" stroke-width="1" fill="none" fill-rule="evenodd">
        <g transform="translate(1.000000, 0.000000)">
            <path d="M31.4376,2.0163 L31.1846,1.7483 C30.9266,1.4753 30.5976,1.1793 30.2296,1.2503 C29.9556,1.3043 29.7646,1.5443 29.6006,1.7693 C25.2506,7.7043 21.3516,13.9683 17.9456,20.4903 C17.7326,20.8983 17.5166,21.3273 17.5176,21.7863 C17.5176,22.7413 18.3976,23.4153 19.0876,24.0753 C22.3526,27.1933 22.3526,32.3093 22.1906,36.8213 C21.9606,43.2143 21.8646,49.6123 21.9026,56.0093 C21.9176,58.6943 21.2156,60.9053 23.8046,62.2333 C24.4396,62.5583 31.9786,64.9583 32.0186,64.3723 C31.7206,68.7323 35.1136,72.7703 34.6026,77.1103 C34.5426,77.6093 34.4326,78.1193 34.5416,78.6103 C34.6506,79.1013 35.0656,79.5743 35.5676,79.5383 C36.0846,79.5033 36.4166,78.9853 36.6236,78.5103 C37.6366,76.1823 37.6806,73.4503 36.7436,71.0903 C36.0466,69.3373 34.8286,67.3923 35.7356,65.7383 C36.8226,63.7543 39.7946,64.2063 41.8206,63.1993 C43.3106,62.4573 44.2476,60.8823 44.6226,59.2603 C44.9966,57.6383 44.8866,55.9483 44.7756,54.2873 C44.1926,45.5933 43.6086,36.8993 43.0256,28.2053 C42.8756,25.9863 42.8706,23.4103 44.5736,21.9783 C45.1386,21.5043 45.9156,21.1063 46.0056,20.3733 C46.0706,19.8583 45.7526,19.3823 45.4486,18.9613 C41.1476,13.0213 36.4646,7.3573 31.4376,2.0163" id="Fill-1" fill="#EBEBEB"></path>
            <g id="Group-5" transform="translate(22.000000, 0.817600)">
                <mask id="mask-2" fill="white">
                    <use xlink:href="#path-1"></use>
                </mask>
                <g id="Clip-4"></g>
                <path d="M14.8126,22.5835 C9.5816,22.5835 5.6426,20.6865 3.7856,19.5755 L14.8126,4.2175 L25.8436,19.5795 C23.9966,20.6905 20.0776,22.5835 14.8126,22.5835 L14.8126,22.5835 Z M22.6816,32.8965 C9.5716,32.4705 7.2366,26.5005 6.9426,25.5265 L6.9426,24.3005 C9.1026,25.0225 11.7536,25.5835 14.8126,25.5835 C17.8716,25.5835 20.5236,25.0225 22.6816,24.3005 L22.6816,32.8965 Z M21.9886,59.2195 C20.5256,59.9175 18.0936,60.7505 14.8126,60.7505 C11.5316,60.7505 9.0996,59.9175 7.6376,59.2195 C7.2156,59.0185 6.9426,58.5725 6.9426,58.0845 L6.9426,51.3875 C9.4946,53.8015 14.1746,56.2865 22.6816,56.5495 L22.6816,58.0845 C22.6816,58.5725 22.4106,59.0185 21.9886,59.2195 L21.9886,59.2195 Z M22.6816,43.2235 C9.5716,42.7975 7.2366,36.8265 6.9426,35.8535 L6.9426,30.7345 C9.4946,33.1485 14.1746,35.6335 22.6816,35.8965 L22.6816,43.2235 Z M6.9426,41.0615 C9.4946,43.4755 14.1746,45.9605 22.6816,46.2235 L22.6816,53.5495 C9.5716,53.1235 7.2366,47.1525 6.9426,46.1795 L6.9426,41.0615 Z M16.0316,0.7705 C15.4666,-0.0135 14.1576,-0.0135 13.5946,0.7705 L0.4446,19.0835 C-0.0194,19.7295 0.1026,20.6265 0.7216,21.1265 C0.8226,21.2085 1.9636,22.1065 3.9426,23.0765 L3.9426,25.7195 L3.9426,25.7215 L3.9426,36.0455 L3.9426,36.0475 L3.9426,46.3715 L3.9426,46.3735 L3.9426,58.0845 C3.9426,59.7215 4.8856,61.2295 6.3446,61.9265 C7.7136,62.5795 9.7956,63.3245 12.4846,63.6175 C11.9686,65.2765 11.8126,67.6845 13.5526,70.3765 C15.5566,73.4795 13.3926,76.4755 13.3046,76.5945 C12.8046,77.2545 12.9336,78.1945 13.5936,78.6955 C13.8646,78.9005 14.1836,79.0005 14.4996,79.0005 C14.9526,79.0005 15.4006,78.7955 15.6956,78.4065 C15.8416,78.2135 19.2316,73.6375 16.0726,68.7485 C14.6076,66.4815 15.1916,64.6145 15.6526,63.7235 C19.0716,63.5915 21.6686,62.6955 23.2816,61.9265 C24.7396,61.2295 25.6816,59.7215 25.6816,58.0845 L25.6816,23.0765 C27.6616,22.1065 28.8026,21.2085 28.9036,21.1265 C29.5236,20.6265 29.6446,19.7295 29.1796,19.0835 L16.0316,0.7705 Z" id="Fill-3" fill="#5E5371" mask="url(#mask-2)"></path>
            </g>
            <path d="M7.1251,43.531 C7.9541,43.531 8.6251,42.859 8.6251,42.031 C8.6251,41.202 7.9541,40.531 7.1251,40.531 L5.8131,40.531 L5.8131,39.218 C5.8131,38.389 5.1411,37.718 4.3121,37.718 C3.4841,37.718 2.8131,38.389 2.8131,39.218 L2.8131,40.531 L1.5001,40.531 C0.6711,40.531 0.0001,41.202 0.0001,42.031 C0.0001,42.859 0.6711,43.531 1.5001,43.531 L2.8131,43.531 L2.8131,44.843 C2.8131,45.672 3.4841,46.344 4.3121,46.344 C5.1411,46.344 5.8131,45.672 5.8131,44.843 L5.8131,43.531 L7.1251,43.531 Z" id="Fill-6" fill="#D4D3DB"></path>
            <path d="M63.131,30.74 L63.377,30.986 C63.67,31.279 64.054,31.426 64.438,31.426 C64.821,31.426 65.205,31.279 65.498,30.986 C66.084,30.401 66.084,29.45 65.498,28.865 L65.252,28.619 L65.498,28.372 C66.084,27.787 66.084,26.837 65.498,26.251 C64.912,25.665 63.963,25.665 63.377,26.251 L63.131,26.498 L62.885,26.251 C62.299,25.665 61.35,25.665 60.764,26.251 C60.178,26.837 60.178,27.787 60.764,28.372 L61.01,28.619 L60.764,28.865 C60.178,29.45 60.178,30.401 60.764,30.986 C61.057,31.279 61.44,31.426 61.824,31.426 C62.207,31.426 62.592,31.279 62.885,30.986 L63.131,30.74 Z" id="Fill-8" fill="#D4D3DB"></path>
            <path d="M3.2521,10.6711 C3.5451,10.9641 3.9291,11.1101 4.3131,11.1101 C4.6961,11.1101 5.0801,10.9641 5.3731,10.6711 L6.3011,9.7431 L7.2301,10.6711 C7.5231,10.9641 7.9061,11.1101 8.2901,11.1101 C8.6741,11.1101 9.0581,10.9641 9.3511,10.6711 C9.9371,10.0861 9.9371,9.1351 9.3511,8.5501 L8.4221,7.6221 L9.3511,6.6931 C9.9371,6.1081 9.9371,5.1581 9.3511,4.5721 C8.7651,3.9861 7.8151,3.9861 7.2301,4.5721 L6.3011,5.5011 L5.3731,4.5721 C4.7871,3.9861 3.8381,3.9861 3.2521,4.5721 C2.6661,5.1581 2.6661,6.1081 3.2521,6.6931 L4.1801,7.6221 L3.2521,8.5501 C2.6661,9.1351 2.6661,10.0861 3.2521,10.6711" id="Fill-10" fill="#D4D3DB"></path>
            <g id="Group-14" transform="translate(62.000000, 60.817600)">
                <mask id="mask-4" fill="white">
                    <use xlink:href="#path-3"></use>
                </mask>
                <g id="Clip-13"></g>
                <path d="M7.6251,3.3667 L6.3131,3.3667 L6.3131,2.0547 C6.3131,1.2247 5.6411,0.5537 4.8121,0.5537 C3.9841,0.5537 3.3131,1.2247 3.3131,2.0547 L3.3131,3.3667 L2.0001,3.3667 C1.1721,3.3667 0.5001,4.0377 0.5001,4.8667 C0.5001,5.6957 1.1721,6.3667 2.0001,6.3667 L3.3131,6.3667 L3.3131,7.6787 C3.3131,8.5087 3.9841,9.1787 4.8121,9.1787 C5.6411,9.1787 6.3131,8.5087 6.3131,7.6787 L6.3131,6.3667 L7.6251,6.3667 C8.4531,6.3667 9.1251,5.6957 9.1251,4.8667 C9.1251,4.0377 8.4531,3.3667 7.6251,3.3667" id="Fill-12" fill="#D4D3DB" mask="url(#mask-4)"></path>
            </g>
            <g id="Group-17" transform="translate(0.000000, 21.817600)" fill="#D3DBE6">
                <path d="M0.7106,3.0254 L5.5116,5.9964 C5.7576,6.1494 6.0306,6.2214 6.2996,6.2214 C6.8026,6.2214 7.2936,5.9694 7.5766,5.5104 C8.0126,4.8064 7.7946,3.8814 7.0906,3.4454 L2.2896,0.4744 C1.5856,0.0384 0.6606,0.2554 0.2246,0.9604 C-0.2114,1.6654 0.0066,2.5894 0.7106,3.0254" id="Fill-15"></path>
            </g>
            <path d="M11.2433,68.4763 L7.3993,72.0553 C6.7933,72.6203 6.7603,73.5693 7.3243,74.1753 C7.6193,74.4923 8.0203,74.6533 8.4223,74.6533 C8.7883,74.6533 9.1553,74.5193 9.4443,74.2503 L13.2883,70.6713 C13.8943,70.1073 13.9283,69.1583 13.3633,68.5503 C12.7983,67.9453 11.8493,67.9103 11.2433,68.4763" id="Fill-18" fill="#D3DBE6"></path>
            <path d="M57.6212,72.2566 C57.0022,71.7056 56.0552,71.7616 55.5042,72.3806 C54.9532,72.9996 55.0102,73.9486 55.6292,74.4986 L59.0042,77.4986 C59.2892,77.7526 59.6442,77.8776 60.0002,77.8776 C60.4132,77.8776 60.8242,77.7076 61.1212,77.3746 C61.6722,76.7556 61.6152,75.8066 60.9962,75.2566 L57.6212,72.2566 Z" id="Fill-20" fill="#D3DBE6"></path>
            <path d="M56.2335,49.4509 C56.3135,49.4999 56.3935,49.5509 56.4945,49.5899 C56.5845,49.6309 56.6735,49.6499 56.7735,49.6699 C56.8635,49.6899 56.9625,49.7009 57.0635,49.7009 C57.1645,49.7009 57.2635,49.6899 57.3535,49.6699 C57.4535,49.6499 57.5435,49.6309 57.6335,49.5899 C57.7235,49.5509 57.8135,49.4999 57.8935,49.4509 C57.9735,49.3999 58.0535,49.3299 58.1235,49.2599 C58.4045,48.9799 58.5635,48.5999 58.5635,48.2009 C58.5635,48.1099 58.5535,48.0099 58.5335,47.9099 C58.5135,47.8099 58.4835,47.7209 58.4435,47.6309 C58.4145,47.5409 58.3635,47.4509 58.3135,47.3709 C58.2545,47.2909 58.1935,47.2109 58.1235,47.1399 C58.0535,47.0699 57.9735,47.0099 57.8935,46.9609 C57.8135,46.8999 57.7235,46.8599 57.6335,46.8199 C57.5435,46.7799 57.4535,46.7499 57.3535,46.7299 C57.1645,46.6899 56.9625,46.6899 56.7735,46.7299 C56.6735,46.7499 56.5845,46.7799 56.4945,46.8199 C56.3935,46.8599 56.3135,46.8999 56.2335,46.9609 C56.1435,47.0099 56.0745,47.0699 56.0045,47.1399 C55.9335,47.2109 55.8735,47.2909 55.8135,47.3709 C55.7635,47.4509 55.7125,47.5409 55.6735,47.6309 C55.6435,47.7209 55.6135,47.8099 55.5935,47.9099 C55.5745,48.0099 55.5635,48.1099 55.5635,48.2009 C55.5635,48.5999 55.7235,48.9899 56.0045,49.2599 C56.0745,49.3299 56.1435,49.3999 56.2335,49.4509" id="Fill-22" fill="#EBEBEB"></path>
            <path d="M17.3239,55.32 C17.2839,55.23 17.2439,55.14 17.1839,55.06 C17.1339,54.98 17.0639,54.9 16.9939,54.83 C16.6439,54.48 16.1339,54.32 15.6439,54.42 C15.5539,54.44 15.4539,54.47 15.3639,54.509 C15.2739,54.541 15.1839,54.59 15.1039,54.64 C15.0239,54.701 14.9439,54.759 14.8739,54.83 C14.8039,54.9 14.7439,54.98 14.6939,55.06 C14.6339,55.14 14.5939,55.23 14.5539,55.32 C14.5139,55.41 14.4839,55.5 14.4639,55.6 C14.4439,55.701 14.4339,55.791 14.4339,55.89 C14.4339,56.291 14.5939,56.67 14.8739,56.951 C14.9439,57.02 15.0239,57.08 15.1039,57.14 C15.1839,57.19 15.2739,57.24 15.3639,57.28 C15.4539,57.31 15.5539,57.34 15.6439,57.36 C15.7439,57.381 15.8439,57.39 15.9339,57.39 C16.0339,57.39 16.1339,57.381 16.2339,57.36 C16.3239,57.34 16.4239,57.31 16.5139,57.28 C16.6039,57.24 16.6839,57.19 16.7739,57.14 C16.8539,57.08 16.9339,57.02 16.9939,56.951 C17.0639,56.881 17.1339,56.81 17.1839,56.72 C17.2439,56.64 17.2839,56.56 17.3239,56.461 C17.3639,56.371 17.3839,56.28 17.4039,56.18 C17.4239,56.09 17.4339,55.99 17.4339,55.89 C17.4339,55.791 17.4239,55.701 17.4039,55.6 C17.3839,55.5 17.3639,55.41 17.3239,55.32" id="Fill-24" fill="#EBEBEB"></path>
            <path d="M17.6237,33.26 C17.3437,33.54 17.1837,33.92 17.1837,34.32 C17.1837,34.42 17.1937,34.51 17.2137,34.61 C17.2337,34.71 17.2637,34.8 17.3037,34.89 C17.3437,34.98 17.3837,35.07 17.4437,35.15 C17.4937,35.23 17.5537,35.31 17.6237,35.38 C17.9037,35.66 18.2937,35.82 18.6837,35.82 C19.0837,35.82 19.4737,35.66 19.7437,35.38 C19.8137,35.31 19.8837,35.23 19.9337,35.15 C19.9937,35.07 20.0337,34.98 20.0737,34.89 C20.1137,34.8 20.1337,34.71 20.1537,34.61 C20.1737,34.51 20.1837,34.42 20.1837,34.32 C20.1837,33.92 20.0237,33.54 19.7437,33.26 C19.1837,32.7 18.1837,32.7 17.6237,33.26" id="Fill-26" fill="#EBEBEB"></path>
            <path d="M22.9835,5.1604 C23.0735,5.1404 23.1735,5.1104 23.2635,5.0804 C23.3535,5.0404 23.4435,4.9904 23.5235,4.9404 C23.6035,4.8804 23.6835,4.8204 23.7435,4.7504 C23.8135,4.6804 23.8835,4.6104 23.9335,4.5204 C23.9935,4.4404 24.0335,4.3604 24.0735,4.2704 C24.1135,4.1804 24.1435,4.0804 24.1535,3.9904 C24.1735,3.8904 24.1835,3.7904 24.1835,3.6904 C24.1835,3.3004 24.0235,2.9104 23.7435,2.6304 C23.1935,2.0704 22.1835,2.0704 21.6235,2.6304 C21.3435,2.9104 21.1835,3.3004 21.1835,3.6904 C21.1835,3.7904 21.1935,3.8904 21.2135,3.9904 C21.2335,4.0804 21.2635,4.1804 21.3035,4.2704 C21.3435,4.3604 21.3835,4.4404 21.4435,4.5204 C21.4935,4.6104 21.5535,4.6804 21.6235,4.7504 C21.9035,5.0304 22.2935,5.1904 22.6835,5.1904 C22.7835,5.1904 22.8835,5.1804 22.9835,5.1604" id="Fill-28" fill="#EBEBEB"></path>
            <path d="M52.6935,3.99 C52.6645,3.9 52.6135,3.82 52.5635,3.73 C52.5045,3.65 52.4435,3.58 52.3735,3.51 C52.3035,3.44 52.2235,3.37 52.1435,3.32 C52.0635,3.27 51.9735,3.22 51.8835,3.18 C51.7935,3.14 51.7035,3.12 51.6035,3.1 C51.4145,3.06 51.2135,3.06 51.0235,3.1 C50.9235,3.12 50.8345,3.14 50.7445,3.18 C50.6435,3.22 50.5635,3.27 50.4835,3.32 C50.3935,3.37 50.3245,3.44 50.2545,3.51 C49.9735,3.79 49.8135,4.17 49.8135,4.57 C49.8135,4.67 49.8245,4.76 49.8435,4.86 C49.8635,4.96 49.8935,5.05 49.9235,5.14 C49.9635,5.23 50.0135,5.32 50.0635,5.4 C50.1235,5.48 50.1835,5.56 50.2545,5.63 C50.3245,5.7 50.3935,5.76 50.4835,5.81 C50.5635,5.87 50.6435,5.91 50.7445,5.95 C50.8345,5.99 50.9235,6.02 51.0235,6.04 C51.1135,6.06 51.2135,6.07 51.3135,6.07 C51.4145,6.07 51.5135,6.06 51.6035,6.04 C51.7035,6.02 51.7935,5.99 51.8835,5.95 C51.9735,5.91 52.0635,5.87 52.1435,5.81 C52.2235,5.76 52.3035,5.7 52.3735,5.63 C52.4435,5.56 52.5045,5.48 52.5635,5.4 C52.6135,5.32 52.6645,5.23 52.6935,5.14 C52.7335,5.05 52.7635,4.96 52.7835,4.86 C52.8035,4.76 52.8135,4.67 52.8135,4.57 C52.8135,4.47 52.8035,4.37 52.7835,4.27 C52.7635,4.18 52.7335,4.08 52.6935,3.99" id="Fill-30" fill="#EBEBEB"></path>
            <path d="M69.6232,16.82 C70.0142,16.82 70.4042,16.66 70.6842,16.38 C70.7542,16.31 70.8132,16.23 70.8732,16.15 C70.9242,16.07 70.9742,15.98 71.0142,15.89 C71.0432,15.8 71.0742,15.71 71.0942,15.61 C71.1132,15.51 71.1232,15.41 71.1232,15.32 C71.1232,14.92 70.9632,14.54 70.6842,14.26 C70.6132,14.19 70.5432,14.13 70.4532,14.07 C70.3732,14.02 70.2932,13.97 70.1932,13.93 C70.1032,13.9 70.0142,13.87 69.9142,13.85 C69.7242,13.81 69.5232,13.81 69.3342,13.85 C69.2332,13.87 69.1442,13.9 69.0542,13.93 C68.9632,13.97 68.8732,14.02 68.7932,14.07 C68.7132,14.13 68.6342,14.19 68.5632,14.26 C68.4942,14.33 68.4342,14.4 68.3732,14.48 C68.3242,14.57 68.2732,14.65 68.2442,14.74 C68.2032,14.83 68.1742,14.93 68.1542,15.02 C68.1342,15.12 68.1232,15.22 68.1232,15.32 C68.1232,15.71 68.2832,16.1 68.5632,16.38 C68.8442,16.66 69.2332,16.82 69.6232,16.82" id="Fill-32" fill="#EBEBEB"></path>
        </g>
    </g>
</svg>