<svg xmlns="http://www.w3.org/2000/svg" viewBox="0 0 150.94 32.54"><defs><style>.cls-1{fill:#68607f;}</style></defs><title>logo</title><g id="Calque_2" data-name="Calque 2"><g id="Calque_1-2" data-name="Calque 1"><path class="cls-1" d="M12.59,32.49h-.38c-1.94,0-3.26-1.23-4.07-3.12L.38,11.44A4.78,4.78,0,0,1,0,9.69,3.53,3.53,0,0,1,3.5,6.33,3.47,3.47,0,0,1,7,8.88L12.44,23.6,18,8.79a3.49,3.49,0,0,1,3.36-2.46,3.4,3.4,0,0,1,3.45,3.41,5.05,5.05,0,0,1-.38,1.7L16.65,29.37C15.85,31.21,14.53,32.49,12.59,32.49Z"/><path class="cls-1" d="M38.33,32.54c-7.62,0-13.25-5.35-13.25-13.11v-.09c0-7.24,5.16-13.2,12.54-13.2,8.47,0,12.21,7,12.21,12.21a3.28,3.28,0,0,1-3.36,3.45H32.22a5.88,5.88,0,0,0,6.2,5,8.3,8.3,0,0,0,5.11-1.7,2.68,2.68,0,0,1,1.75-.57,2.75,2.75,0,0,1,2.79,2.84,2.82,2.82,0,0,1-.95,2.13A13.14,13.14,0,0,1,38.33,32.54ZM43,17.3c-.43-3.22-2.32-5.39-5.35-5.39S32.7,14,32.13,17.3Z"/><path class="cls-1" d="M52.95,9.92a3.6,3.6,0,1,1,7.19,0v.28c1.66-2.13,3.79-4.07,7.43-4.07,5.44,0,8.61,3.6,8.61,9.42V28.66a3.6,3.6,0,0,1-7.19,0V17.82c0-3.41-1.61-5.16-4.35-5.16s-4.49,1.75-4.49,5.16V28.66a3.6,3.6,0,0,1-7.19,0Z"/><path class="cls-1" d="M105.56,28.66a3.6,3.6,0,0,1-7.19,0v-.33a9.31,9.31,0,0,1-7.9,4.12c-5.91,0-11.54-4.64-11.54-13.11v-.09c0-8.47,5.54-13.11,11.54-13.11a9.74,9.74,0,0,1,7.9,3.79V3.6a3.6,3.6,0,1,1,7.19,0ZM86.11,19.24v.09c0,4.21,2.84,7,6.2,7s6.15-2.79,6.15-7v-.09c0-4.21-2.79-7-6.15-7S86.11,15,86.11,19.24Z"/><path class="cls-1" d="M108.4,19.43v-.09c0-7.29,5.87-13.2,13.77-13.2S135.84,12,135.84,19.24v.09c0,7.29-5.87,13.2-13.77,13.2S108.4,26.72,108.4,19.43Zm20.35,0v-.09a6.74,6.74,0,0,0-6.67-7c-4.12,0-6.58,3.17-6.58,6.91v.09a6.74,6.74,0,0,0,6.67,7C126.29,26.34,128.75,23.17,128.75,19.43Z"/><path class="cls-1" d="M147.75,4.48a1.07,1.07,0,0,0,.63-.34,1,1,0,0,0,.22-.35,1.29,1.29,0,0,0,.07-.45,1.17,1.17,0,0,0-.35-.87,1.28,1.28,0,0,0-.92-.34h-1.69V6h.68V4.55h.68L147.92,6h.79ZM146.4,4V2.73h.93a.69.69,0,0,1,.47.16.58.58,0,0,1,.19.44.59.59,0,0,1-.19.44.66.66,0,0,1-.47.17Z"/><path class="cls-1" d="M147.12.25a3.81,3.81,0,1,0,3.81,3.81A3.81,3.81,0,0,0,147.12.25Zm0,7a3.21,3.21,0,1,1,3.21-3.21A3.21,3.21,0,0,1,147.12,7.27Z"/></g></g></svg>