<?xml version="1.0" encoding="UTF-8"?>
<svg width="65px" height="48px" viewBox="0 0 65 48" version="1.1" xmlns="http://www.w3.org/2000/svg" xmlns:xlink="http://www.w3.org/1999/xlink">
    <!-- Generator: Sketch 41.2 (35397) - http://www.bohemiancoding.com/sketch -->
    <title>Untitled</title>
    <desc>Created with Sketch.</desc>
    <defs>
        <polygon id="path-1" points="3.885 3.0008 3.885 0.00421744786 0.8852 0.00421744786 0.8852 3.0008"></polygon>
        <polygon id="path-3" points="0.644 3 3.644 3 3.644 0.00421744786 0.644 0.00421744786 0.644 3"></polygon>
    </defs>
    <g id="Page-1" stroke="none" stroke-width="1" fill="none" fill-rule="evenodd">
        <g>
            <g id="Group-21" transform="translate(0.000000, 0.745700)">
                <path d="M56.9914,42.0043 C57.3834,42.0043 57.7734,41.8523 58.0674,41.5493 L62.9614,36.5123 C63.5384,35.9183 63.5244,34.9693 62.9304,34.3913 C62.3374,33.8153 61.3874,33.8273 60.8094,34.4223 L55.9164,39.4593 C55.3384,40.0533 55.3514,41.0023 55.9464,41.5803 C56.2374,41.8633 56.6144,42.0043 56.9914,42.0043" id="Fill-1" fill="#D3DBE6"></path>
                <path d="M6.4211,18.9506 C6.5301,18.5746 6.4921,18.1566 6.2831,17.7906 L2.8031,11.6906 C2.3931,10.9716 1.4771,10.7206 0.7571,11.1306 C0.0381,11.5406 -0.2129,12.4566 0.1971,13.1776 L3.6771,19.2766 C4.0881,19.9966 5.0041,20.2476 5.7231,19.8366 C6.0761,19.6356 6.3171,19.3116 6.4211,18.9506" id="Fill-3" fill="#D3DBE6"></path>
                <path d="M10.3156,45.5814 C10.5276,45.3384 10.6456,45.0134 10.6166,44.6664 L10.1436,38.8964 C10.0876,38.2164 9.4916,37.7104 8.8106,37.7664 C8.1306,37.8214 7.6236,38.4184 7.6796,39.0994 L8.1516,44.8684 C8.2076,45.5494 8.8046,46.0564 9.4856,45.9994 C9.8186,45.9724 10.1106,45.8144 10.3156,45.5814" id="Fill-5" fill="#D3DBE6"></path>
                <path d="M12.9113,40.9467 C12.6823,40.7197 12.3653,40.5827 12.0173,40.5897 L6.2303,40.7047 C5.5473,40.7177 5.0043,41.2817 5.0183,41.9647 C5.0313,42.6457 5.5953,43.1897 6.2783,43.1757 L12.0663,43.0617 C12.7493,43.0487 13.2913,42.4837 13.2783,41.8007 C13.2713,41.4667 13.1323,41.1657 12.9113,40.9467" id="Fill-7" fill="#D3DBE6"></path>
                <path d="M53.1066,4.9974 C53.2346,4.8504 53.3056,4.6524 53.2896,4.4424 L53.0026,0.9424 C52.9676,0.5304 52.6056,0.2234 52.1936,0.2574 C51.7816,0.2904 51.4726,0.6524 51.5066,1.0654 L51.7946,4.5644 C51.8276,4.9774 52.1896,5.2854 52.6026,5.2514 C52.8046,5.2344 52.9826,5.1394 53.1066,4.9974" id="Fill-9" fill="#D3DBE6"></path>
                <path d="M54.6808,2.1859 C54.5418,2.0489 54.3498,1.9649 54.1388,1.9699 L50.6278,2.0399 C50.2138,2.0469 49.8848,2.3899 49.8928,2.8039 C49.9008,3.2169 50.2438,3.5469 50.6578,3.5389 L54.1678,3.4689 C54.5818,3.4609 54.9108,3.1189 54.9038,2.7049 C54.8988,2.5009 54.8148,2.3189 54.6808,2.1859" id="Fill-11" fill="#D3DBE6"></path>
                <g id="Group-15" transform="translate(61.000000, 24.000000)">
                    <mask id="mask-2" fill="white">
                        <use xlink:href="#path-1"></use>
                    </mask>
                    <g id="Clip-14"></g>
                    <path d="M3.4552,0.4398 C3.1052,0.0898 2.5862,-0.0602 2.0962,0.0298 C1.9952,0.0498 1.9052,0.0808 1.8152,0.1208 C1.7252,0.1608 1.6352,0.2008 1.5552,0.2598 C1.4752,0.3098 1.3942,0.3708 1.3252,0.4398 C1.0452,0.7198 0.8852,1.1098 0.8852,1.5008 C0.8852,1.5998 0.8942,1.7008 0.9152,1.7998 C0.9352,1.8898 0.9652,1.9908 1.0062,2.0808 C1.0452,2.1698 1.0862,2.2508 1.1442,2.3308 C1.1952,2.4198 1.2562,2.4908 1.3252,2.5598 C1.3942,2.6298 1.4752,2.6898 1.5552,2.7508 C1.6352,2.7998 1.7252,2.8498 1.8152,2.8898 C1.9052,2.9198 1.9952,2.9508 2.0962,2.9698 C2.1952,2.9908 2.2952,3.0008 2.3852,3.0008 C2.7852,3.0008 3.1762,2.8398 3.4552,2.5598 C3.5162,2.4908 3.5862,2.4198 3.6352,2.3308 C3.6952,2.2508 3.7352,2.1698 3.7752,2.0808 C3.8152,1.9908 3.8462,1.8898 3.8652,1.7998 C3.8752,1.7008 3.8852,1.5998 3.8852,1.5008 C3.8852,1.1098 3.7252,0.7198 3.4552,0.4398" id="Fill-13" fill="#F98081" mask="url(#mask-2)"></path>
                </g>
                <path d="M13.507,11.2728 C13.157,10.9228 12.637,10.7728 12.147,10.8628 C12.047,10.8828 11.957,10.9138 11.867,10.9538 C11.777,10.9938 11.687,11.0338 11.607,11.0928 C11.527,11.1428 11.447,11.2038 11.377,11.2728 C11.097,11.5528 10.937,11.9428 10.937,12.3338 C10.937,12.4328 10.947,12.5338 10.967,12.6328 C10.987,12.7228 11.017,12.8238 11.057,12.9138 C11.097,13.0028 11.137,13.0838 11.197,13.1638 C11.247,13.2528 11.307,13.3238 11.377,13.3928 C11.447,13.4628 11.527,13.5228 11.607,13.5838 C11.687,13.6328 11.777,13.6828 11.867,13.7228 C11.957,13.7528 12.047,13.7838 12.147,13.8028 C12.247,13.8238 12.347,13.8338 12.437,13.8338 C12.837,13.8338 13.227,13.6728 13.507,13.3928 C13.567,13.3238 13.637,13.2528 13.687,13.1638 C13.747,13.0838 13.787,13.0028 13.827,12.9138 C13.867,12.8238 13.897,12.7228 13.917,12.6328 C13.927,12.5338 13.937,12.4328 13.937,12.3338 C13.937,11.9428 13.777,11.5528 13.507,11.2728" id="Fill-16" fill="#F98081"></path>
                <g id="Group-20" transform="translate(18.000000, 44.000000)">
                    <mask id="mask-4" fill="white">
                        <use xlink:href="#path-3"></use>
                    </mask>
                    <g id="Clip-19"></g>
                    <path d="M3.214,0.4398 C2.864,0.0898 2.344,-0.0602 1.854,0.0298 C1.754,0.0498 1.664,0.0808 1.574,0.1208 C1.484,0.1608 1.394,0.2008 1.314,0.2598 C1.234,0.3098 1.153,0.3708 1.084,0.4398 C0.804,0.7198 0.644,1.1098 0.644,1.5008 C0.644,1.5998 0.653,1.7008 0.674,1.7998 C0.693,1.8898 0.724,1.9908 0.764,2.0808 C0.804,2.1698 0.844,2.2508 0.903,2.3308 C0.954,2.4198 1.014,2.4908 1.084,2.5598 C1.153,2.6298 1.234,2.6898 1.314,2.7508 C1.394,2.7998 1.484,2.8498 1.574,2.8898 C1.664,2.9198 1.754,2.9508 1.854,2.9698 C1.954,2.9908 2.054,3.0008 2.144,3.0008 C2.544,3.0008 2.934,2.8398 3.214,2.5598 C3.274,2.4908 3.344,2.4198 3.394,2.3308 C3.454,2.2508 3.494,2.1698 3.534,2.0808 C3.574,1.9908 3.604,1.8898 3.624,1.7998 C3.634,1.7008 3.644,1.5998 3.644,1.5008 C3.644,1.1098 3.484,0.7198 3.214,0.4398" id="Fill-18" fill="#F98081" mask="url(#mask-4)"></path>
                </g>
            </g>
            <g id="Group-26" transform="translate(14.000000, 7.745700)">
                <path d="M39.548,10.8842 C39.224,10.6122 38.403,10.2542 37.972,10.2462 C37.505,10.2382 37.167,10.7992 36.928,11.1282 C36.521,11.6892 36.096,12.2102 35.643,12.7382 C34.867,13.6412 34.091,14.5432 33.316,15.4462 C32.752,16.1022 32.189,16.7572 31.627,17.4132 C31.971,17.9492 32.24,18.6192 32.255,19.2632 C32.272,19.9732 32.011,20.6962 31.511,21.2042 C30.753,21.9752 29.498,22.2032 28.518,21.7492 C27.608,21.3282 27.069,20.3462 27.012,19.3682 C27.008,19.3022 27.005,19.2322 26.968,19.1762 C26.809,18.9362 25.498,19.1042 25.215,19.1082 C24.564,19.1172 23.913,19.1392 23.263,19.1202 C21.947,19.0832 20.634,19.0482 19.318,19.0302 C19.132,19.0292 18.942,19.0272 18.769,19.0952 C18.051,19.3762 17.798,20.5252 17.17,20.9932 C16.441,21.5372 15.613,21.8122 14.705,21.8122 C14.341,21.8122 13.975,21.7522 13.637,21.6132 C12.979,21.3422 12.667,20.8332 12.071,21.6522 C11.314,22.6922 10.547,23.7252 9.785,24.7602 C9.053,25.7542 8.374,26.8172 7.508,27.7012 C7.441,27.7702 7.399,27.7162 7.401,27.8452 C7.402,27.9072 7.455,27.9862 7.489,28.0342 C7.8,28.4822 7.909,28.9992 8.056,29.5142 C8.145,29.8262 8.298,30.2092 8.282,30.5402 C8.281,30.5562 8.28,30.5722 8.277,30.5882 C8.054,31.7892 7.209,32.3532 6.209,32.8672 C5.7,33.1302 9.22,35.0042 9.705,35.0042 L35.704,35.0042 C37.914,35.0042 39.709,33.2142 39.709,31.0042 L39.709,27.0532 L39.709,18.8782 L39.709,14.8542 C39.709,13.7832 39.819,12.7082 39.796,11.6392 C39.788,11.2812 39.737,11.0432 39.548,10.8842" id="Fill-22" fill="#D2DCE6"></path>
                <path d="M38.2052,8.0043 C37.1022,8.0043 36.2052,7.1073 36.2052,6.0043 C36.2052,4.9013 37.1022,4.0043 38.2052,4.0043 C39.3082,4.0043 40.2052,4.9013 40.2052,6.0043 C40.2052,7.1073 39.3082,8.0043 38.2052,8.0043 M34.2042,32.0043 L8.2042,32.0043 C7.1832,32.0043 6.2992,31.4753 5.7582,30.6913 C7.1942,30.0833 8.2052,28.6593 8.2052,27.0043 C8.2052,26.3183 8.0162,25.6823 7.7102,25.1173 L11.6072,20.0213 C12.3092,20.6253 13.2092,21.0043 14.2052,21.0043 C16.0792,21.0043 17.7732,19.7463 18.2052,18.0043 L24.2052,18.0043 C24.6462,19.7333 26.3402,21.0043 28.2052,21.0043 C30.4112,21.0043 32.2052,19.2103 32.2052,17.0043 C32.2052,16.3023 32.0082,15.6523 31.6892,15.0783 L36.4462,9.5793 C36.6872,9.6983 36.9392,9.7933 37.2052,9.8623 L37.2052,29.0043 C37.2052,30.6583 35.8612,32.0043 34.2042,32.0043 M2.2052,27.0043 C2.2052,26.2683 2.6102,25.6293 3.2052,25.2823 L3.2052,25.3583 C3.9472,25.1083 4.7652,25.1563 5.4822,25.4793 C5.9202,25.8463 6.2052,26.3903 6.2052,27.0043 C6.2052,28.1073 5.3082,29.0043 4.2052,29.0043 C3.1022,29.0043 2.2052,28.1073 2.2052,27.0043 M16.1892,16.8433 C16.1932,16.8973 16.2052,16.9483 16.2052,17.0043 C16.2052,18.1073 15.3082,19.0043 14.2052,19.0043 C13.1022,19.0043 12.2052,18.1073 12.2052,17.0043 C12.2052,15.9013 13.1022,15.0043 14.2052,15.0043 C15.1512,15.0043 15.9412,15.6663 16.1482,16.5503 C16.1692,16.6473 16.1792,16.7453 16.1892,16.8433 M30.2052,17.0043 C30.2052,18.1073 29.3082,19.0043 28.2052,19.0043 C27.1022,19.0043 26.2052,18.1073 26.2052,17.0043 C26.2052,15.9013 27.1022,15.0043 28.2052,15.0043 C29.3082,15.0043 30.2052,15.9013 30.2052,17.0043 M8.2042,2.0043 L34.2042,2.0043 C34.8982,2.0043 35.5172,2.2623 36.0222,2.6593 C34.9312,3.3743 34.2052,4.6043 34.2052,6.0043 C34.2052,6.8533 34.4752,7.6373 34.9272,8.2853 L30.3352,13.6313 C29.7172,13.2393 28.9902,13.0043 28.2052,13.0043 C26.3112,13.0043 24.6172,14.2343 24.2052,16.0043 L18.2052,16.0043 C17.7732,14.2613 16.0802,13.0043 14.2052,13.0043 C11.9992,13.0043 10.2052,14.7983 10.2052,17.0043 C10.2052,17.4633 10.2992,17.8983 10.4412,18.3083 L6.3432,23.6353 C5.9962,23.4143 5.6132,23.2523 5.2052,23.1463 L5.2052,5.0043 C5.2052,3.3503 6.5532,2.0043 8.2042,2.0043 M42.2052,6.0043 C42.2052,3.7983 40.4112,2.0043 38.2052,2.0043 C38.1972,2.0043 38.1902,2.0063 38.1832,2.0063 C37.2722,0.7953 35.8352,0.0043 34.2042,0.0043 L8.2042,0.0043 C5.4502,0.0043 3.2052,2.2473 3.2052,5.0043 L3.2052,23.1463 C1.4842,23.5933 0.2052,25.1463 0.2052,27.0043 C0.2052,29.0083 1.6892,30.6553 3.6142,30.9443 C4.3752,32.7363 6.1402,34.0043 8.2042,34.0043 L34.2042,34.0043 C36.9642,34.0043 39.2052,31.7613 39.2052,29.0043 L39.2052,9.8623 C40.9262,9.4153 42.2052,7.8623 42.2052,6.0043" id="Fill-24" fill="#5F5270"></path>
            </g>
        </g>
    </g>
</svg>